 http://img20.imageshack.us/img20/8207/bound2bby2bblood2b2bwen.jpg

Country.......: USA
Genre.........: Action, Sci-Fi, Horror, Thriller
Date release..: 2010 [World]
Director......: Len Kabasinski
Writers.......: Len Kabasinski
Duration......: 74 min.
More..........: http://www.imdb.com/title/tt1719680
Trailer.......: http://www.imdb.com/video/screenplay/vi470195481
Trailer.......:

Pilot :
For hundreds of years, Native American culture has believed in the evil cannibalistic spirit known as "the wendigo". For those who had taken part in cannibalism, no matter the reason, it was aid "the wendigo" would take possession of the person's body and soul. Once the wendigo would take possession of the human host,the host would develop and insatiable desire to eat human flesh. In the deep woods of Northern Pennsylvania, a small town Sheriff (Brian Anthony) is investigating a bloody crime scene. On the scene, he meets Angeni Stonechild (Cheyenne King), a traveling physician treating patients in the area. During the investigation, the two stumble upon dead bodies, a slew of relentless hit men, and two mysterious individuals being protected by federal agents. With a trail of mutilated bodies piling up, the sheriff and Angeni must not only confront the dangerous assassins but also find a way to destroy.....The Wendigo!

Cats :
Brian Anthony   	 ...  	Craig
Brian Arrington 	... 	Hitman
Sara Brooks 	... 	Hotel Girl
Dave Campbell 	... 	Agent Marks
Bob Dobiesz 	... 	Stanley
Andrew Ferrick 	... 	Hitman
James Scott Charles Howells 	... 	Micheal
Len Kabasinski 	... 	Warner
Cheyenne King 	... 	Angeni Stonechild
Joseph Mellesh 	... 	Billy
Amara Arielle Offhaus 	... 	Agent McKane
K.K. Ryder 	... 	Hitwoman
Melissa Scott 	... 	Karen 

Data Technical :
!!! SAMPLE !!!
Audio.....: English
Subtitles.: None
Format                           : AVI
Format/Info                      : Audio Video Interleave
File size                        : 1 024 MiB
Duration                         : 1h 13mn
Overall bit rate                 : 1 942 Kbps
Video
ID                               : 0
Format                           : MPEG-4 Visual
Format settings, BVOP            : Yes
Format settings, QPel            : No
Format settings, GMC             : No warppoints
Format settings, Matrix          : Default (H.263)
Muxing mode                      : Packed bitstream
Codec ID                         : DX50
Codec ID/Hint                    : DivX 5
Duration                         : 1h 13mn
Bit rate                         : 1 285 Kbps
Width                            : 720 pixels
Height                           : 368 pixels
Display aspect ratio             : 1.957
Frame rate                       : 29.970 fps
Color space                      : YUV
Chroma subsampling               : 4:2:0
Bit depth                        : 8 bits
Scan type                        : Progressive
Bits/(Pixel*Frame)               : 0.162
Stream size                      : 678 MiB (66%)
Title                            : Video 
Writing library                  : DivX 3330
Audio #1
ID                               : 1
Format                           : AC-3
Format/Info                      : Audio Coding 3
Mode extension                   : CM (complete main)
Codec ID                         : 2000
Duration                         : 1h 13mn
Bit rate mode                    : Constant
Bit rate                         : 448 Kbps
Channel(s)                       : 6 channels
Channel positions                : Front: L C R, Side: L R, LFE
Sampling rate                    : 48.0 KHz
Bit depth                        : 16 bits
Stream size                      : 236 MiB (23%)
Alignment                        : Split accross interleaves
Interleave, duration             : 33 ms (1.00 video frame)
Interleave, preload duration     : 500 ms
Title                            : Audio 
Audio #2
ID                               : 2
Format                           : AC-3
Format/Info                      : Audio Coding 3
Mode extension                   : CM (complete main)
Codec ID                         : 2000
Duration                         : 1h 13mn
Bit rate mode                    : Constant
Bit rate                         : 192 Kbps
Channel(s)                       : 2 channels
Channel positions                : Front: L R
Sampling rate                    : 48.0 KHz
Bit depth                        : 16 bits
Stream size                      : 101 MiB (10%)
Alignment                        : Split accross interleaves
Interleave, duration             : 34 ms (1.00 video frame)
Interleave, preload duration     : 500 ms
Title                            : Audio 

Screen : 
http://img607.imageshack.us/img607/5368/wendigoboundbyblood2010.jpg 
http://img135.imageshack.us/img135/5368/wendigoboundbyblood2010.jpg 
http://img52.imageshack.us/img52/5368/wendigoboundbyblood2010.jpg 
http://img843.imageshack.us/img843/5368/wendigoboundbyblood2010.jpg 
http://img577.imageshack.us/img577/9371/wendigoboundbyblood2010a.jpg